<?xml version="1.0" standalone="no"?>
<!DOCTYPE svg PUBLIC "-//W3C//DTD SVG 20010904//EN"
 "http://www.w3.org/TR/2001/REC-SVG-20010904/DTD/svg10.dtd">
<svg version="1.0" xmlns="http://www.w3.org/2000/svg"
 width="512.000000pt" height="492.000000pt" viewBox="0 0 512.000000 492.000000"
 preserveAspectRatio="xMidYMid meet">

<g transform="translate(0.000000,492.000000) scale(0.100000,-0.100000)"
fill="#000000" stroke="none">
<path d="M990 4394 c-179 -38 -347 -175 -429 -349 -108 -228 -131 -465 -131
-1350 0 -867 20 -1050 133 -1270 51 -97 151 -207 235 -255 56 -33 60 -38 66
-80 26 -189 160 -387 329 -488 191 -114 446 -123 651 -22 159 79 285 225 346
405 l17 50 271 3 271 2 11 -42 c32 -116 123 -253 223 -336 209 -171 509 -201
750 -75 77 41 191 141 239 210 62 92 118 235 118 305 0 18 10 29 43 45 161 79
309 271 364 473 28 101 25 413 -6 580 -44 248 -209 951 -262 1125 -89 290
-206 443 -414 541 -110 52 -193 72 -1068 259 -938 201 -1166 247 -1325 269
-137 19 -344 19 -432 0z m430 -310 c103 -15 349 -64 830 -167 l245 -52 27
-380 c15 -209 34 -423 42 -475 45 -275 243 -459 531 -494 28 -3 270 -17 539
-31 269 -14 490 -26 491 -28 5 -6 56 -272 70 -357 37 -242 29 -365 -30 -486
-19 -39 -53 -92 -76 -118 l-42 -48 -36 69 c-45 88 -172 216 -261 266 -146 80
-319 107 -476 73 -235 -51 -434 -232 -509 -463 l-17 -53 -273 0 -273 0 -7 33
c-23 108 -127 265 -229 346 -326 260 -805 172 -1014 -185 -20 -35 -41 -62 -47
-61 -21 7 -83 109 -104 173 -54 164 -56 206 -56 1049 0 815 3 892 45 1071 61
260 184 353 445 337 44 -2 127 -11 185 -19z m1730 -359 c168 -36 346 -77 397
-90 214 -56 301 -139 372 -352 31 -91 135 -502 129 -508 -5 -5 -742 33 -871
45 -131 11 -167 23 -220 69 -48 43 -72 85 -86 150 -10 46 -61 667 -61 737 0
16 5 21 18 18 9 -2 154 -34 322 -69z m-1450 -2199 c73 -36 134 -97 173 -171
30 -56 32 -66 32 -165 0 -95 -3 -111 -28 -162 -37 -75 -128 -159 -204 -188
-119 -45 -265 -23 -366 56 -157 122 -187 359 -66 518 44 57 110 106 172 128
80 28 214 21 287 -16z m1872 2 c188 -88 269 -316 178 -503 -134 -276 -539
-275 -671 2 -94 197 -6 424 198 509 82 35 212 31 295 -8z"/>
</g>
</svg>
