<?xml version="1.0" standalone="no"?>
<!DOCTYPE svg PUBLIC "-//W3C//DTD SVG 20010904//EN"
 "http://www.w3.org/TR/2001/REC-SVG-20010904/DTD/svg10.dtd">
<svg version="1.0" xmlns="http://www.w3.org/2000/svg"
 width="512.000000pt" height="512.000000pt" viewBox="0 0 512.000000 512.000000"
 preserveAspectRatio="xMidYMid meet">

<g transform="translate(0.000000,512.000000) scale(0.100000,-0.100000)"
fill="#000000" stroke="none">
<path d="M2842 5109 c-111 -21 -232 -112 -282 -210 -112 -218 -25 -475 195
-575 204 -94 452 -2 548 203 40 87 49 210 22 294 -69 209 -271 330 -483 288z
m205 -175 c191 -92 188 -377 -6 -471 -58 -28 -158 -29 -219 -3 -94 41 -162
144 -162 246 0 51 37 138 76 178 84 87 196 105 311 50z"/>
<path d="M1889 4171 c-20 -4 -56 -19 -80 -34 -65 -39 -699 -596 -731 -642
-114 -163 6 -389 207 -389 44 0 73 7 108 25 26 13 180 140 343 282 l295 258
55 -3 55 -3 -127 -205 c-164 -267 -166 -271 -172 -356 -6 -95 12 -132 133
-272 l97 -113 -28 -22 c-16 -12 -127 -99 -248 -194 l-220 -172 -476 -3 c-466
-3 -476 -3 -516 -25 -61 -33 -111 -93 -130 -159 -41 -142 51 -287 200 -315 34
-6 245 -9 558 -7 488 3 504 4 548 24 25 12 178 125 340 253 162 127 298 231
302 231 3 0 70 -74 147 -164 l141 -165 -164 -399 c-91 -219 -170 -420 -176
-445 -15 -69 12 -171 54 -206 9 -8 16 -17 16 -22 0 -5 -264 -9 -603 -9 l-602
0 -120 121 c-135 137 -178 162 -266 162 -141 -2 -242 -106 -242 -248 1 -94 24
-129 222 -326 165 -165 179 -177 229 -190 46 -11 52 -16 47 -34 -35 -121 -28
-196 27 -276 144 -212 471 -144 517 109 8 43 4 87 -15 164 l-6 28 199 0 c196
0 200 0 221 23 12 13 22 29 22 35 0 9 29 12 98 12 l97 -1 20 -32 20 -32 219
-3 218 -2 -6 -23 c-37 -124 -30 -196 26 -278 159 -234 523 -121 520 161 0 36
-7 81 -16 101 l-15 36 42 13 c34 10 75 45 223 193 108 109 188 198 200 222 26
57 25 157 -3 210 -47 88 -127 137 -224 137 -88 0 -129 -25 -264 -161 l-120
-121 -159 0 -158 0 16 22 c33 47 60 106 248 559 l193 464 0 86 c0 76 -3 90
-27 126 -14 22 -144 177 -288 344 -144 167 -264 309 -267 316 -4 10 430 738
457 766 4 5 109 -119 233 -275 189 -238 233 -288 273 -310 87 -46 99 -46 480
32 406 82 437 90 490 128 45 33 89 108 99 169 15 93 -47 208 -138 254 -72 38
-111 35 -419 -29 l-287 -59 -47 59 c-64 82 -83 98 -116 98 -36 0 -78 -40 -78
-73 0 -30 151 -224 184 -236 16 -7 112 9 337 55 338 68 360 70 394 21 31 -44
13 -122 -35 -147 -28 -15 -694 -150 -738 -150 -21 0 -47 7 -59 15 -11 8 -121
142 -244 297 -282 356 -292 368 -334 368 -20 0 -39 -8 -52 -22 -20 -22 -513
-830 -547 -895 -20 -39 -20 -73 -2 -116 7 -18 131 -168 274 -334 315 -365 312
-362 312 -402 0 -34 -377 -959 -409 -1001 -53 -72 -171 -34 -171 55 0 24 59
179 175 460 96 233 175 437 175 454 0 25 -58 97 -372 463 -493 572 -488 567
-488 600 0 44 17 75 183 345 198 321 192 308 176 344 -6 17 -20 34 -30 39 -10
6 -92 10 -183 10 l-165 0 -307 -267 c-168 -148 -316 -273 -328 -280 -66 -38
-146 7 -146 83 0 22 8 48 18 60 19 24 633 560 672 587 22 16 76 17 678 17 423
0 660 -4 672 -10 11 -6 56 -55 100 -110 74 -92 84 -100 115 -100 45 0 75 29
75 73 0 25 -18 54 -86 139 -71 89 -94 112 -142 135 l-57 28 -655 2 c-360 0
-671 -2 -691 -6z m350 -1648 l62 -72 -158 -123 c-87 -69 -222 -175 -301 -236
l-143 -112 -520 0 -521 0 -29 29 c-57 57 -28 149 52 165 18 3 237 6 489 6
l457 0 39 29 c21 15 143 110 269 209 127 100 233 180 236 179 3 -1 34 -34 68
-74z"/>
</g>
</svg>
