<?xml version="1.0" standalone="no"?>
<!DOCTYPE svg PUBLIC "-//W3C//DTD SVG 20010904//EN"
 "http://www.w3.org/TR/2001/REC-SVG-20010904/DTD/svg10.dtd">
<svg version="1.0" xmlns="http://www.w3.org/2000/svg"
 width="512.000000pt" height="512.000000pt" viewBox="0 0 512.000000 512.000000"
 preserveAspectRatio="xMidYMid meet">

<g transform="translate(0.000000,512.000000) scale(0.100000,-0.100000)"
fill="#000000" stroke="none">
<path d="M2880 4147 c-49 -16 -133 -102 -148 -153 -17 -59 -15 -112 9 -164 27
-60 64 -98 124 -126 45 -22 64 -24 191 -24 l141 0 5 -72 c3 -47 13 -88 26
-114 22 -44 78 -98 111 -109 19 -6 21 -14 21 -96 l0 -89 -56 0 c-87 0 -133
-18 -189 -75 -69 -69 -75 -94 -75 -325 l0 -193 147 -148 146 -148 -206 -276
-207 -275 -236 0 -235 0 -24 25 c-21 20 -25 34 -25 80 l0 55 55 0 c46 0 60 4
80 25 25 24 25 25 25 222 0 133 -5 214 -14 248 -32 121 -102 207 -214 262
l-76 38 -215 6 -216 6 -225 77 -225 77 -455 -3 -455 -3 -65 -31 c-93 -44 -152
-101 -195 -186 -19 -39 -35 -77 -35 -84 0 -10 -16 -14 -60 -14 -52 0 -65 -4
-86 -25 -26 -26 -26 -27 -22 -169 3 -139 4 -144 33 -192 60 -95 64 -97 572
-174 246 -38 459 -73 473 -78 23 -8 686 -485 718 -517 12 -10 6 -18 -31 -44
-25 -17 -57 -45 -71 -63 l-25 -32 -18 33 c-41 76 -140 197 -207 252 -88 73
-214 140 -332 175 -77 23 -107 27 -229 28 -107 0 -156 -4 -209 -18 -331 -88
-564 -322 -652 -652 -25 -96 -25 -312 0 -408 88 -330 322 -564 652 -652 52
-14 103 -18 209 -18 122 1 151 4 228 27 185 57 338 157 449 296 64 80 125 190
150 269 l13 42 700 0 c385 0 710 3 721 6 12 3 63 57 115 119 l94 114 12 -93
c26 -211 108 -382 253 -526 114 -115 250 -192 416 -236 96 -25 312 -25 408 0
329 87 565 323 652 652 25 96 26 301 0 404 -42 172 -168 376 -290 471 l-57 44
63 3 c83 3 105 9 128 32 33 33 25 70 -32 146 -110 147 -268 274 -439 353 -46
21 -93 41 -103 45 -16 5 -11 13 35 47 76 56 83 74 75 181 -20 258 -137 500
-311 641 -73 59 -195 121 -270 138 l-55 12 0 83 0 82 153 4 c133 3 157 6 193
25 93 49 141 141 131 251 -20 229 -170 422 -386 494 -64 22 -79 23 -541 25
-330 1 -486 -2 -510 -10z m1039 -183 c57 -24 127 -81 164 -136 43 -62 63 -115
72 -190 6 -49 4 -58 -19 -84 l-25 -29 -135 135 -136 135 0 98 c0 110 -6 105
79 71z m-239 -684 l0 -80 -80 0 -80 0 0 80 0 80 80 0 80 0 0 -80z m505 -751
c46 -23 115 -96 115 -121 0 -6 -49 -9 -138 -6 -124 3 -142 5 -187 29 -46 23
-115 96 -115 121 0 6 49 9 138 6 124 -3 142 -5 187 -29z m-10 -951 c3 -13 37
-178 75 -368 68 -338 69 -346 51 -370 -28 -39 -65 -48 -99 -23 -15 11 -30 31
-34 44 -4 13 -37 177 -73 364 -36 187 -68 348 -71 358 -5 15 3 17 70 17 70 0
76 -2 81 -22z m-3139 -332 c31 -14 60 -26 64 -26 5 0 17 15 29 33 l20 32 71
-72 c38 -39 70 -77 70 -82 0 -8 -72 -11 -221 -11 -145 0 -236 -4 -263 -12 -55
-16 -138 -99 -154 -154 -28 -94 -8 -169 63 -239 68 -68 95 -75 311 -75 l178 0
-39 -41 c-22 -22 -74 -57 -114 -77 -71 -35 -81 -37 -170 -37 -87 0 -102 3
-163 32 -93 44 -151 100 -196 191 -35 72 -37 81 -37 171 0 87 3 102 32 163 40
85 97 147 172 186 78 42 122 52 213 48 56 -3 92 -11 134 -30z m2928 -198 c54
-281 53 -276 110 -333 102 -101 230 -101 332 0 81 81 85 110 44 319 -18 94
-36 180 -38 190 -5 18 -2 17 37 -5 60 -34 117 -99 154 -177 29 -61 32 -76 32
-163 0 -90 -2 -99 -37 -171 -45 -91 -103 -147 -196 -191 -61 -29 -76 -32 -162
-32 -86 0 -101 3 -162 32 -92 43 -151 100 -195 190 -33 67 -37 83 -37 156 -1
45 3 98 7 119 7 35 6 37 -23 43 -16 4 -32 11 -35 15 -9 15 43 109 87 156 22
24 42 44 43 44 1 0 19 -87 39 -192z m-2364 -168 l0 -80 -371 0 -371 0 -29 29
c-16 16 -29 39 -29 51 0 12 13 35 29 51 l29 29 371 0 371 0 0 -80z"/>
</g>
</svg>
