<?xml version="1.0" standalone="no"?>
<!DOCTYPE svg PUBLIC "-//W3C//DTD SVG 20010904//EN"
 "http://www.w3.org/TR/2001/REC-SVG-20010904/DTD/svg10.dtd">
<svg version="1.0" xmlns="http://www.w3.org/2000/svg"
 width="512.000000pt" height="512.000000pt" viewBox="0 0 512.000000 512.000000"
 preserveAspectRatio="xMidYMid meet">

<g transform="translate(0.000000,512.000000) scale(0.100000,-0.100000)"
fill="#000000" stroke="none">
<path d="M850 4947 c-32 -16 -50 -52 -50 -104 l0 -41 -95 -4 c-108 -3 -138
-21 -138 -78 0 -57 30 -75 138 -78 l95 -4 0 -279 0 -279 -280 0 -280 0 0 -160
0 -160 80 0 80 0 0 -480 0 -480 -40 0 -40 0 0 -159 0 -160 -38 -3 -38 -3 120
-602 120 -601 45 -13 c25 -7 85 -40 133 -72 128 -87 203 -91 293 -16 28 23 79
56 114 72 120 57 239 38 370 -57 70 -51 106 -66 155 -66 59 0 80 9 158 68 149
112 300 115 447 7 85 -63 114 -75 173 -75 57 0 84 13 168 79 103 82 239 98
352 43 35 -17 88 -50 119 -73 93 -68 181 -67 264 2 122 102 261 131 375 78 30
-14 86 -47 123 -72 37 -26 79 -50 93 -53 44 -11 124 2 152 24 70 55 148 103
185 113 39 11 146 16 175 8 9 -3 90 188 257 604 l243 607 -159 0 -159 0 -80
-160 -80 -160 -225 0 -224 0 24 -25 c24 -23 25 -30 25 -140 l0 -116 26 20 c56
44 134 8 134 -60 0 -45 -78 -120 -150 -144 -103 -34 -224 -3 -296 77 -42 47
-45 88 -9 123 30 31 73 32 109 4 l26 -20 0 116 c0 110 1 117 25 140 l24 25
-1024 0 -1025 0 -80 160 -80 160 -120 0 -120 0 0 160 0 160 -40 0 -40 0 0 160
0 160 -240 0 -240 0 0 160 0 160 240 0 240 0 0 160 0 160 80 0 80 0 0 160 0
160 -280 0 -280 0 0 119 0 119 95 4 c108 3 138 21 138 78 0 57 -30 75 -138 78
l-94 4 -3 214 c-3 198 -4 215 -23 233 -28 27 -56 33 -85 18z m-75 -2652 c24
-23 25 -31 25 -135 0 -104 -1 -112 -25 -135 -15 -16 -36 -25 -55 -25 -19 0
-40 9 -55 25 -24 23 -25 31 -25 135 0 104 1 112 25 135 15 16 36 25 55 25 19
0 40 -9 55 -25z m320 0 c24 -23 25 -31 25 -135 0 -104 -1 -112 -25 -135 -15
-16 -36 -25 -55 -25 -19 0 -40 9 -55 25 -24 23 -25 31 -25 135 0 104 1 112 25
135 15 16 36 25 55 25 19 0 40 -9 55 -25z m320 0 c24 -23 25 -31 25 -135 0
-104 -1 -112 -25 -135 -15 -16 -36 -25 -55 -25 -19 0 -40 9 -55 25 -24 23 -25
31 -25 135 0 104 1 112 25 135 15 16 36 25 55 25 19 0 40 -9 55 -25z m160
-480 c16 -15 25 -36 25 -55 0 -19 -9 -40 -25 -55 l-24 -25 -431 0 -431 0 -24
25 c-16 15 -25 36 -25 55 0 19 9 40 25 55 l24 25 431 0 431 0 24 -25z m640 0
c16 -15 25 -36 25 -55 0 -19 -9 -40 -25 -55 -24 -25 -26 -25 -215 -25 -189 0
-191 0 -215 25 -16 15 -25 36 -25 55 0 19 9 40 25 55 24 25 26 25 215 25 189
0 191 0 215 -25z"/>
<path d="M2480 3885 c0 -107 2 -195 5 -195 2 0 38 17 80 37 l75 37 75 -37 c42
-20 78 -37 80 -37 3 0 5 88 5 195 l0 195 -160 0 -160 0 0 -195z"/>
<path d="M3440 3885 c0 -107 2 -195 5 -195 2 0 38 17 80 37 l75 37 75 -37 c42
-20 78 -37 80 -37 3 0 5 88 5 195 l0 195 -160 0 -160 0 0 -195z"/>
<path d="M2363 3428 c-32 -16 -48 -61 -34 -97 15 -36 48 -51 111 -51 63 0 96
15 111 51 15 37 -2 82 -37 98 -31 14 -121 13 -151 -1z"/>
<path d="M2843 3428 c-55 -27 -50 -114 8 -138 89 -37 151 99 63 139 -30 13
-42 13 -71 -1z"/>
<path d="M3323 3428 c-32 -16 -48 -61 -34 -97 15 -36 48 -51 111 -51 63 0 96
15 111 51 15 37 -2 82 -37 98 -31 14 -121 13 -151 -1z"/>
<path d="M3803 3428 c-55 -27 -50 -114 8 -138 89 -37 151 99 63 139 -30 13
-42 13 -71 -1z"/>
<path d="M2000 2925 c0 -107 2 -195 5 -195 2 0 38 17 80 37 l75 37 75 -37 c42
-20 78 -37 80 -37 3 0 5 88 5 195 l0 195 -160 0 -160 0 0 -195z"/>
<path d="M2960 2920 l0 -200 80 40 80 40 80 -40 80 -40 0 200 0 200 -160 0
-160 0 0 -200z"/>
<path d="M3920 2925 c0 -107 2 -195 5 -195 2 0 38 17 80 37 l75 37 75 -37 c42
-20 78 -37 80 -37 3 0 5 88 5 195 l0 195 -160 0 -160 0 0 -195z"/>
<path d="M1883 2468 c-32 -16 -48 -61 -34 -97 15 -36 48 -51 111 -51 63 0 96
15 111 51 15 37 -2 82 -37 98 -31 14 -121 13 -151 -1z"/>
<path d="M2363 2468 c-55 -27 -50 -114 8 -138 89 -37 151 99 63 139 -30 13
-42 13 -71 -1z"/>
<path d="M2825 2455 c-16 -15 -25 -36 -25 -55 0 -19 9 -40 25 -55 21 -22 33
-25 95 -25 62 0 74 3 95 25 16 15 25 36 25 55 0 19 -9 40 -25 55 -21 22 -33
25 -95 25 -62 0 -74 -3 -95 -25z"/>
<path d="M3305 2455 c-50 -49 -15 -135 55 -135 41 0 80 39 80 80 0 41 -39 80
-80 80 -19 0 -40 -9 -55 -25z"/>
<path d="M3803 2468 c-32 -16 -48 -61 -34 -97 15 -36 48 -51 111 -51 63 0 96
15 111 51 15 37 -2 82 -37 98 -31 14 -121 13 -151 -1z"/>
<path d="M4283 2468 c-55 -27 -50 -114 8 -138 89 -37 151 99 63 139 -30 13
-42 13 -71 -1z"/>
</g>
</svg>
